<?xml version="1.0" encoding="iso-8859-1"?>
<!-- Generator: Adobe Illustrator 16.0.0, SVG Export Plug-In . SVG Version: 6.00 Build 0)  -->
<!DOCTYPE svg PUBLIC "-//W3C//DTD SVG 1.1//EN" "http://www.w3.org/Graphics/SVG/1.1/DTD/svg11.dtd">
<svg version="1.1" id="Capa_1" xmlns="http://www.w3.org/2000/svg" xmlns:xlink="http://www.w3.org/1999/xlink" x="0px" y="0px"
	 width="123.896px" height="123.896px" viewBox="0 0 123.896 123.896" style="enable-background:new 0 0 123.896 123.896;"
	 xml:space="preserve">
<g>
	<g>
		<circle cx="102.685" cy="19.614" r="11.003"/>
		<path d="M109.785,32.987c-0.377-0.23-0.777-0.376-1.187-0.479c-1.001-0.56-2.079-0.982-3.172-1.25l-2.741,2.759l-2.658-2.79
			c-0.01,0.002-0.019,0.003-0.025,0.005c-1.402,0.336-2.778,0.929-4.006,1.737c-0.23,0.091-0.459,0.193-0.679,0.328
			c-8.347,5.12-13.244,15.723-19.443,29.146c-0.727,1.568-0.414,3.348,0.644,4.578c-3.367,2.938-4.85,2.001-8.431-0.264
			c-0.39-0.246-0.785-0.498-1.194-0.748c-0.24-0.147-0.496-0.24-0.757-0.308c-0.642-0.356-1.329-0.627-2.027-0.799l-1.751,1.764
			l-1.698-1.784c-0.006,0.002-0.013,0.004-0.019,0.006c-1.328,0.316-2.617,0.996-3.612,1.955c-3.223,2.035-4.742,2.934-7.588,0.756
			c1.188-1.053,1.743-2.726,1.284-4.354c-5.323-18.907-13.386-25.163-21.19-29.948c-0.218-0.134-0.446-0.236-0.678-0.327
			c-1.226-0.809-2.602-1.402-4.004-1.738c-0.009-0.002-0.018-0.003-0.028-0.005l-2.657,2.79l-2.74-2.759
			c-1.525,0.373-3.017,1.055-4.318,1.983c-0.037,0.021-0.078,0.033-0.114,0.056C7.257,38.043-0.276,44.375,0.008,64.682
			c0.033,2.341,1.939,4.214,4.271,4.214c0.02,0,0.04,0,0.062,0c2.358-0.033,4.244-1.974,4.211-4.332
			c-0.1-7.166,0.834-11.939,2.354-15.319v7.77c-1.204,5.215-6.229,27.16-6.243,30.437c-0.008,1.678,3.021,3.116,7.29,4.023
			l0.002,18.43c0,2.789,2.259,5.048,5.049,5.048c2.787,0,5.047-2.26,5.047-5.048v-17.41c0.239,0.001,0.478,0.001,0.718-0.001
			l-0.001,17.41c-0.001,2.788,2.26,5.048,5.048,5.048h0.001c2.787,0,5.048-2.259,5.049-5.048l0.001-18.729
			c3.009-0.916,5.292-2.345,6.135-4.402c0.028-6.072-4.405-24.885-5.569-29.723v-9.857c3.438,3.803,6.508,9.271,9.068,18.37
			c0.203,0.719,0.578,1.34,1.067,1.837c-0.362,0.986-0.135,2.14,0.675,2.914c3.122,2.98,5.83,4.008,8.223,4.008
			c0.945,0,1.842-0.161,2.695-0.424v3.218c0,0-2.714,18.5-5.88,19.5h6.24l0.002,15.442c0,1.783,1.444,3.229,3.226,3.228
			c1.782,0,3.226-1.444,3.226-3.228l-0.001-15.442h0.46l-0.001,15.442c0,1.783,1.444,3.228,3.226,3.228
			c1.783,0,3.229-1.444,3.229-3.228l0.001-15.442h6.64c-3.166-1-5.88-19.5-5.88-19.5l-0.09-0.006v-3.394
			c1.011,0.369,2.085,0.604,3.23,0.604c2.395,0,5.103-1.026,8.224-4.008c0.658-0.63,0.928-1.511,0.811-2.351
			c0.769-0.425,1.416-1.078,1.812-1.937c2.769-5.993,5.25-11.359,7.794-15.713V65.11c0,1.149,0.224,2.222,0.613,3.208
			c-0.029,0.222-0.051,0.445-0.051,0.676l0.003,40.908c0,2.789,2.262,5.049,5.05,5.048c2.787,0,5.049-2.26,5.048-5.048
			l-0.002-35.107c0.199,0.008,0.399,0.024,0.602,0.024c0.039,0,0.078-0.004,0.116-0.004v35.087c0,2.788,2.26,5.048,5.049,5.048
			h0.001c2.787,0,5.048-2.26,5.048-5.048l0.001-40.657c0.662-1.228,1.048-2.612,1.048-4.135V49.6
			c1.264,3.341,1.773,7.825,1.135,14.21c-0.234,2.348,1.479,4.439,3.825,4.676c0.146,0.014,0.286,0.021,0.431,0.021
			c2.168,0,4.024-1.645,4.247-3.848C125.508,45.442,118.089,38.08,109.785,32.987z"/>
		<circle cx="62.356" cy="57.464" r="7.032"/>
		<circle cx="22.168" cy="19.614" r="11.003"/>
	</g>
</g>
<g>
</g>
<g>
</g>
<g>
</g>
<g>
</g>
<g>
</g>
<g>
</g>
<g>
</g>
<g>
</g>
<g>
</g>
<g>
</g>
<g>
</g>
<g>
</g>
<g>
</g>
<g>
</g>
<g>
</g>
</svg>
