<?xml version="1.0" encoding="iso-8859-1"?>
<!-- Generator: Adobe Illustrator 16.0.0, SVG Export Plug-In . SVG Version: 6.00 Build 0)  -->
<!DOCTYPE svg PUBLIC "-//W3C//DTD SVG 1.1//EN" "http://www.w3.org/Graphics/SVG/1.1/DTD/svg11.dtd">
<svg version="1.1" id="Capa_1" xmlns="http://www.w3.org/2000/svg" xmlns:xlink="http://www.w3.org/1999/xlink" x="0px" y="0px"
	 width="62.362px" height="62.362px" viewBox="0 0 62.362 62.362" style="enable-background:new 0 0 62.362 62.362;"
	 xml:space="preserve">
<g>
	<g>
		<path d="M57.415,46.065c-2.36-0.105-4.856,0.049-7.368,0.212c0.622-2.571,2.262-6.486,2.262-6.486s-1.195-1.704-2.887-1.831
			c-4.361-2.773-7.551-6.921-9.165-11.675c0.156-1.669-0.353-3.13-0.353-3.13c-0.179-0.017-0.332-0.027-0.47-0.036
			c-0.302-1.646-0.432-3.335-0.354-5.049c0.002-0.036-0.013-0.069-0.014-0.105c0.37-0.714,2.864-7.167-23.972-13.635
			c0,0-0.63-0.345-1.538-0.62c0.573-1.032,0.895-1.918,0.517-2.591c-1.314-2.335-5.838,1.897-7.589,7.297
			C4.884,13.354,1.103,15.37,2.7,19.362c-1.435,0.655-3.548,2.066-2.342,4.376c1.751,3.356,4.815,14.01,5.691,23.641
			c0.876,9.632-0.195,12.842,5.011,12.55c5.205-0.292,12.063,0.438,17.609,1.46c5.546,1.021,19.263,1.167,29.478-5.983
			c0,0,1.605-0.877,1.313-3.356C59.459,52.049,67.193,46.504,57.415,46.065z M12.121,15.865c-0.307-0.897-0.654-1.758-1.062-2.53
			c-1.034-1.956-0.619-3.873,0.199-5.626c6.241,3.254,19.006,9.578,25.383,10.366c-0.065,1.48,0.016,2.944,0.212,4.383
			c-0.807-0.404-2.128-1.049-4.391-2.077C24.812,16.905,13.194,15.947,12.121,15.865z M13.654,22.72
			c-0.05-0.362-0.105-0.736-0.167-1.121c0.559,0.113,1.23,0.197,2.046,0.242c6.349,0.346,17.895,3.886,22.447,5.351
			c0.401,1.161,0.882,2.292,1.45,3.38c-4.993-0.939-11.912,1.195-15.182,2.374C21.167,29.036,17.633,25.35,13.654,22.72z
			 M35.98,45.49c-2.514-0.887-4.727-2.44-6.437-5.079c-0.594-0.915-1.22-1.85-1.866-2.788c0.038-0.009,0.081-0.006,0.113-0.022
			c0.9-0.399,8.369-1.415,12.989-2.016L35.98,45.49z M44.549,46.556c-1.108,0.021-2.203,0.007-3.273-0.064
			c0.519-2.857,1.295-6.951,3.629-8.904c0.613,0.549,1.254,1.071,1.925,1.561C45.312,40.847,44.753,44.264,44.549,46.556z"/>
	</g>
</g>
<g>
</g>
<g>
</g>
<g>
</g>
<g>
</g>
<g>
</g>
<g>
</g>
<g>
</g>
<g>
</g>
<g>
</g>
<g>
</g>
<g>
</g>
<g>
</g>
<g>
</g>
<g>
</g>
<g>
</g>
</svg>
