<?xml version="1.0" encoding="iso-8859-1"?>
<!-- Generator: Adobe Illustrator 18.0.0, SVG Export Plug-In . SVG Version: 6.00 Build 0)  -->
<!DOCTYPE svg PUBLIC "-//W3C//DTD SVG 1.1//EN" "http://www.w3.org/Graphics/SVG/1.1/DTD/svg11.dtd">
<svg version="1.1" id="Capa_1" xmlns="http://www.w3.org/2000/svg" xmlns:xlink="http://www.w3.org/1999/xlink" x="0px" y="0px"
	 viewBox="0 0 380 380" style="enable-background:new 0 0 380 380;" xml:space="preserve">
<g>
	<path d="M336.621,81.707H266.31c-0.752-23.296-19.862-41.954-43.343-41.954h-65.935c-23.481,0-42.591,18.658-43.343,41.954H43.379
		C19.421,81.707,0,101.131,0,125.087v171.78c0,23.958,19.421,43.379,43.379,43.379h293.242c23.958,0,43.379-19.421,43.379-43.379
		v-171.78C380,101.131,360.579,81.707,336.621,81.707z M96.166,163.662H68.674c-9.179,0-16.619-7.441-16.619-16.619
		c0-9.177,7.44-16.618,16.619-16.618h27.492c9.178,0,16.619,7.441,16.619,16.618C112.785,156.221,105.344,163.662,96.166,163.662z
		 M264.033,284.722c-40.729,0-73.745-33.017-73.745-73.745c0-40.729,33.017-73.744,73.745-73.744s73.745,33.015,73.745,73.744
		C337.778,251.705,304.762,284.722,264.033,284.722z"/>
	<circle cx="263.977" cy="211.003" r="34.704"/>
</g>
<g>
</g>
<g>
</g>
<g>
</g>
<g>
</g>
<g>
</g>
<g>
</g>
<g>
</g>
<g>
</g>
<g>
</g>
<g>
</g>
<g>
</g>
<g>
</g>
<g>
</g>
<g>
</g>
<g>
</g>
</svg>
